<svg xmlns="http://www.w3.org/2000/svg" width="760" height="500" viewBox="0 0 760 500" fill="none" role="img" aria-labelledby="t d">
  <title id="t">App screenshot placeholder</title>
  <desc id="d">Placeholder dashboard screenshot style card for NoSlip marketing section</desc>

  <defs>
    <linearGradient id="bg" x1="40" y1="34" x2="714" y2="468" gradientUnits="userSpaceOnUse">
      <stop stop-color="#0F172A"/>
      <stop offset="1" stop-color="#1E293B"/>
    </linearGradient>
    <linearGradient id="pill" x1="0" y1="0" x2="1" y2="0">
      <stop stop-color="#7C3AED"/>
      <stop offset="1" stop-color="#2563EB"/>
    </linearGradient>
  </defs>

  <rect x="40" y="34" width="680" height="432" rx="22" fill="url(#bg)" stroke="rgba(255,255,255,0.12)"/>

  <rect x="62" y="58" width="182" height="384" rx="14" fill="#111A2D" stroke="rgba(255,255,255,0.1)"/>
  <rect x="82" y="86" width="122" height="10" rx="5" fill="rgba(148,163,184,0.34)"/>
  <rect x="82" y="110" width="144" height="9" rx="4.5" fill="rgba(148,163,184,0.2)"/>
  <rect x="82" y="135" width="132" height="9" rx="4.5" fill="rgba(148,163,184,0.2)"/>
  <rect x="82" y="176" width="128" height="36" rx="18" fill="url(#pill)"/>
  <rect x="82" y="226" width="146" height="9" rx="4.5" fill="rgba(148,163,184,0.2)"/>
  <rect x="82" y="248" width="110" height="9" rx="4.5" fill="rgba(148,163,184,0.2)"/>

  <rect x="266" y="58" width="432" height="56" rx="14" fill="#121E35" stroke="rgba(255,255,255,0.1)"/>
  <rect x="286" y="79" width="196" height="10" rx="5" fill="rgba(148,163,184,0.32)"/>
  <rect x="580" y="74" width="96" height="24" rx="12" fill="url(#pill)"/>

  <rect x="266" y="130" width="432" height="312" rx="16" fill="#0F182B" stroke="rgba(255,255,255,0.1)"/>

  <g>
    <rect x="286" y="156" width="392" height="56" rx="12" fill="#131F35" stroke="rgba(255,255,255,0.08)"/>
    <rect x="304" y="176" width="112" height="9" rx="4.5" fill="rgba(148,163,184,0.34)"/>
    <rect x="448" y="172" width="130" height="16" rx="8" fill="rgba(148,163,184,0.2)"/>
    <rect x="604" y="168" width="54" height="24" rx="12" fill="url(#pill)"/>
  </g>

  <g>
    <rect x="286" y="226" width="392" height="56" rx="12" fill="#131F35" stroke="rgba(255,255,255,0.08)"/>
    <rect x="304" y="246" width="124" height="9" rx="4.5" fill="rgba(148,163,184,0.34)"/>
    <rect x="448" y="242" width="130" height="16" rx="8" fill="rgba(148,163,184,0.2)"/>
    <rect x="604" y="238" width="54" height="24" rx="12" fill="rgba(255,255,255,0.14)"/>
  </g>

  <g>
    <rect x="286" y="296" width="392" height="56" rx="12" fill="#131F35" stroke="rgba(255,255,255,0.08)"/>
    <rect x="304" y="316" width="102" height="9" rx="4.5" fill="rgba(148,163,184,0.34)"/>
    <rect x="448" y="312" width="130" height="16" rx="8" fill="rgba(148,163,184,0.2)"/>
    <rect x="604" y="308" width="54" height="24" rx="12" fill="rgba(255,255,255,0.14)"/>
  </g>

  <g>
    <rect x="286" y="366" width="392" height="56" rx="12" fill="#131F35" stroke="rgba(255,255,255,0.08)"/>
    <rect x="304" y="386" width="136" height="9" rx="4.5" fill="rgba(148,163,184,0.34)"/>
    <rect x="448" y="382" width="130" height="16" rx="8" fill="rgba(148,163,184,0.2)"/>
    <rect x="604" y="378" width="54" height="24" rx="12" fill="url(#pill)"/>
  </g>
</svg>
