<svg xmlns="http://www.w3.org/2000/svg" width="720" height="520" viewBox="0 0 720 520" fill="none" role="img" aria-labelledby="t d">
  <title id="t">NoSlip hero 3D placeholder</title>
  <desc id="d">Abstract stacked cards on a perspective platform</desc>

  <defs>
    <linearGradient id="panelTop" x1="330" y1="96" x2="510" y2="96" gradientUnits="userSpaceOnUse">
      <stop stop-color="#B6C4FF"/>
      <stop offset="1" stop-color="#D9DFFF"/>
    </linearGradient>
    <linearGradient id="towerFront" x1="350" y1="116" x2="350" y2="356" gradientUnits="userSpaceOnUse">
      <stop stop-color="#5569A8"/>
      <stop offset="1" stop-color="#2E3C66"/>
    </linearGradient>
    <linearGradient id="towerSide" x1="450" y1="122" x2="520" y2="356" gradientUnits="userSpaceOnUse">
      <stop stop-color="#3B4E82"/>
      <stop offset="1" stop-color="#233258"/>
    </linearGradient>
    <linearGradient id="cardFront" x1="180" y1="324" x2="304" y2="440" gradientUnits="userSpaceOnUse">
      <stop stop-color="#4F63A2"/>
      <stop offset="1" stop-color="#2A3761"/>
    </linearGradient>
    <linearGradient id="ring" x1="0" y1="0" x2="1" y2="0">
      <stop stop-color="#7C3AED"/>
      <stop offset="1" stop-color="#2563EB"/>
    </linearGradient>
  </defs>

  <ellipse cx="362" cy="444" rx="238" ry="44" fill="#050A16" opacity="0.62"/>

  <path d="M118 392L336 332L604 392L386 454Z" fill="#2A2952"/>
  <path d="M118 392L336 332L604 392" stroke="rgba(255,255,255,0.18)"/>

  <path d="M330 96L430 96L510 122L410 122L330 96Z" fill="url(#panelTop)"/>
  <path d="M330 96V332L410 356V122L330 96Z" fill="url(#towerFront)"/>
  <path d="M410 122V356L510 332V122H410Z" fill="url(#towerSide)"/>

  <rect x="392" y="176" width="56" height="56" rx="14" fill="#0F1A34" stroke="rgba(255,255,255,0.16)"/>
  <circle cx="420" cy="204" r="14" fill="none" stroke="#8DB3FF" stroke-width="2.5"/>
  <path d="M413 205L418 210L427 199" stroke="#A78BFA" stroke-width="2.5" stroke-linecap="round" stroke-linejoin="round"/>

  <rect x="374" y="252" width="92" height="10" rx="5" fill="rgba(148,163,184,0.34)"/>
  <rect x="374" y="270" width="110" height="8" rx="4" fill="rgba(148,163,184,0.22)"/>
  <rect x="374" y="286" width="76" height="8" rx="4" fill="rgba(148,163,184,0.18)"/>

  <path d="M190 334L270 312L348 340L268 362L190 334Z" fill="#C9D4FF"/>
  <path d="M190 334V406L268 438V362L190 334Z" fill="url(#cardFront)"/>
  <path d="M268 362V438L348 406V340L268 362Z" fill="#324372"/>

  <ellipse cx="270" cy="344" rx="32" ry="12" fill="#2E3664"/>
  <ellipse cx="270" cy="344" rx="22" ry="8" fill="url(#ring)"/>

  <rect x="216" y="380" width="78" height="8" rx="4" fill="rgba(148,163,184,0.28)"/>
  <rect x="216" y="396" width="58" height="8" rx="4" fill="rgba(148,163,184,0.2)"/>

  <circle cx="520" cy="384" r="18" fill="#A78BFA" opacity="0.3"/>
</svg>
